<svg xmlns="http://www.w3.org/2000/svg" xmlns:xlink="http://www.w3.org/1999/xlink" width="119" height="61.268" viewBox="0 0 119 61.268">
  <defs>
    <linearGradient id="linear-gradient" x1="-0.046" y1="0.546" x2="2.162" y2="0.283" gradientUnits="objectBoundingBox">
      <stop offset="0.466"/>
      <stop offset="0.467" stop-color="#000305"/>
      <stop offset="0.473" stop-color="#001b2a"/>
      <stop offset="0.479" stop-color="#00314a"/>
      <stop offset="0.487" stop-color="#004265"/>
      <stop offset="0.496" stop-color="#00517b"/>
      <stop offset="0.506" stop-color="#005c8c"/>
      <stop offset="0.518" stop-color="#006498"/>
      <stop offset="0.535" stop-color="#00689f"/>
      <stop offset="0.583" stop-color="#016aa1"/>
    </linearGradient>
  </defs>
  <g id="Group_7581" data-name="Group 7581" transform="translate(-79.011 -155.145)">
    <g id="Text" transform="translate(79.011 182.166)">
      <g id="Group_1" data-name="Group 1" transform="translate(0 0)">
        <path id="Path_1" data-name="Path 1" d="M79.011,461.166q0-2.515,2.425-8.425H79.86a.194.194,0,0,1-.2-.167.478.478,0,0,1,.03-.333.243.243,0,0,1,.227-.167h1.818q1.091-2.394,2.03-4a7.075,7.075,0,0,1,1.728-2.167,2.482,2.482,0,0,1,1.136-.561,1.482,1.482,0,0,1,.5.061,1.373,1.373,0,0,1,.7,1.379,6.192,6.192,0,0,1-.7,2.53q-.7,1.486-1.364,2.758h1.455a.194.194,0,0,1,.2.167.48.48,0,0,1-.03.333.243.243,0,0,1-.227.167H85.406a22.015,22.015,0,0,1-4.031,5l-.7,3.091a3.431,3.431,0,0,0-.091.773,1.62,1.62,0,0,0,.212.773.706.706,0,0,0,.667.394,2.371,2.371,0,0,0,1.152-.364,13.513,13.513,0,0,0,3.213-4.576.571.571,0,0,1,.288-.333q.166-.061.2.076a.861.861,0,0,1-.091.439,28.248,28.248,0,0,1-1.576,2.97q-1.637,2.637-3.485,2.637a1.956,1.956,0,0,1-1.546-.7A2.58,2.58,0,0,1,79.011,461.166Zm5.7-8.425H83.284q-.364.849-1.636,4.031A23.164,23.164,0,0,0,84.709,452.741Zm.394-.667q2-3.576,2-4.97,0-.606-.212-.606-.334,0-1.015.97a34.19,34.19,0,0,0-2.288,4.607Z" transform="translate(-79.011 -438.921)"/>
        <path id="Path_2" data-name="Path 2" d="M123.312,461.064q0,.849.606.849,1.424,0,4.031-5.334.212-.424.379-.333a.273.273,0,0,1,.167.243,3.383,3.383,0,0,1-.349.864q-.349.712-.7,1.364t-1.015,1.712q-1.394,2.122-2.97,2.121a1.909,1.909,0,0,1-1.637-.849,1.864,1.864,0,0,1-.273-1.076,5.7,5.7,0,0,1,.3-1.652,16.353,16.353,0,0,1,1.667-3.152,1.844,1.844,0,0,0,.333-.864q0-.318-.515-.318T121.372,456a21.457,21.457,0,0,0-4.243,6q-.212.454-1.121.455l-.2.016a.445.445,0,0,1-.443-.637q5.459-11.329,7.948-15.9a6.408,6.408,0,0,1,1.015-1.485,1.453,1.453,0,0,1,1.046-.424,5.4,5.4,0,0,1,.636.076h.01a.387.387,0,0,1,.251.614,47.654,47.654,0,0,0-2.791,4.628q-2.349,4.258-4.5,8.653a22.139,22.139,0,0,1,2.561-2.788,15.274,15.274,0,0,1,2.773-1.894,5.934,5.934,0,0,1,2.394-.894h0a.284.284,0,0,1,.226.427C124.567,457.039,123.312,459.744,123.312,461.064Z" transform="translate(-111.134 -437.758)"/>
        <path id="Path_3" data-name="Path 3" d="M215.515,516.156a5.99,5.99,0,0,0-.424,2.3,2.179,2.179,0,0,0,.379,1.349,1.27,1.27,0,0,0,1.076.5q2.757,0,5-5.182.212-.485.515-.424a.144.144,0,0,1,.121.152,18.628,18.628,0,0,1-2.061,3.97,4.589,4.589,0,0,1-3.819,2.122,2.916,2.916,0,0,1-2.061-.788,2.793,2.793,0,0,1-.849-2.152,7.394,7.394,0,0,1,.652-2.894,11.069,11.069,0,0,1,1.773-2.849,6.806,6.806,0,0,1,2.576-1.925,3.347,3.347,0,0,1,1.333-.3,2.09,2.09,0,0,1,1.182.364,1.215,1.215,0,0,1,.515.939q0,1.819-2.182,3.485a6.493,6.493,0,0,1-1.879.924A6.361,6.361,0,0,1,215.515,516.156Zm5.091-4.849q0-.606-.485-.606-.849,0-2.576,2.091a15.583,15.583,0,0,0-1.818,2.849,4.791,4.791,0,0,0,1.5-.364,5.771,5.771,0,0,0,1.712-.97A4.007,4.007,0,0,0,220.606,511.307Z" transform="translate(-197.905 -496.154)"/>
        <path id="Path_4" data-name="Path 4" d="M277.256,496.195a1.863,1.863,0,0,0,1.212-.576,19.4,19.4,0,0,0,2.849-4.576q.212-.455.424-.273a.272.272,0,0,1,.061.2,2.442,2.442,0,0,1-.243.667q-.243.531-.439.955t-.758,1.379a9.737,9.737,0,0,1-1.015,1.47A3.359,3.359,0,0,1,277,496.862a1.833,1.833,0,0,1-1.591-.667,2.464,2.464,0,0,1-.485-1.485,4.784,4.784,0,0,1,.394-1.788l1.94-4.94a1.578,1.578,0,0,0,.061-.485,1.043,1.043,0,0,0-.171-.5.2.2,0,0,1,.168-.294l1.306-.024q.7,0,.818.258t-.182.8l-2.425,5.667a4.75,4.75,0,0,0-.515,1.909Q276.316,496.2,277.256,496.195Zm2.97-11.122a1.412,1.412,0,0,1-.94.363,1.009,1.009,0,0,1-.818-.363,1.11,1.11,0,0,1-.242-.879,1.468,1.468,0,0,1,.515-.879,1.409,1.409,0,0,1,.94-.364,1.055,1.055,0,0,1,.833.364,1,1,0,0,1,.227.879A1.47,1.47,0,0,1,280.226,485.073Z" transform="translate(-252.343 -472.192)"/>
        <path id="Path_5" data-name="Path 5" d="M314.954,486.8a3.305,3.305,0,0,1-1.728,2.576q.606.03,1.621.03.872,0,2.137-.112a.444.444,0,0,1,.485.437v.008a3.1,3.1,0,0,1-.364,1.167q-.364.773-.652,1.333l-.546,1.061q-.258.5-.576,1.227t-.53,1.334q-.758,2.3.243,2.3,1.273,0,3.758-5.061c.141-.262.258-.364.348-.3a.267.267,0,0,1,.136.227,4.251,4.251,0,0,1-.394.939q-.394.8-.849,1.652a11.353,11.353,0,0,1-1.424,1.97,3.1,3.1,0,0,1-2.212,1.394q-1.182,0-1.636-1.424a2.76,2.76,0,0,1-.091-.818,4.338,4.338,0,0,1,.349-1.455,15.907,15.907,0,0,1,1.106-2.212q.757-1.3.849-1.531a1.18,1.18,0,0,0,.091-.44q0-.939-2.425-1l-.364.97q-1.909,5-3.667,6.7-.3.273-.3-.182a.494.494,0,0,1,.061-.212,23.215,23.215,0,0,0,2.94-5.3,28.83,28.83,0,0,0,1.727-5.819q.182-.939.849-.94t.97.849A2.014,2.014,0,0,1,314.954,486.8Z" transform="translate(-281.889 -474.285)"/>
        <path id="Path_6" data-name="Path 6" d="M416.485,393.69a2.774,2.774,0,0,0-.97-2,5.34,5.34,0,0,0-3.849-1.333,14.158,14.158,0,0,0-4.758.939,7.5,7.5,0,0,0-2.364,1.334A3.67,3.67,0,0,0,403,395.3q0,1.789,2.273,3.212.848.516,3.41,1.682a37.1,37.1,0,0,1,3.743,1.894,6.68,6.68,0,0,1,2.47,2.334,4.841,4.841,0,0,1,.682,2.3,5.756,5.756,0,0,1-1,3.091,14.944,14.944,0,0,1-5.152,4.849A17.884,17.884,0,0,1,400,417.026a12.446,12.446,0,0,1-8.425-2.7,6.641,6.641,0,0,1-2.425-5.3,8.96,8.96,0,0,1,1.5-4.546,8.68,8.68,0,0,1,3.682-3.516,1.188,1.188,0,0,1,.682-.121q.227.061-.379.576a9.181,9.181,0,0,0-2.091,2.273,10.575,10.575,0,0,0-1.7,5.789A5.868,5.868,0,0,0,392,413.087c1.374,1.838,3.758,2.792,7.152,3.034q.575.06,1.712.061a16.026,16.026,0,0,0,3.091-.409,14.348,14.348,0,0,0,3.773-1.261,9.793,9.793,0,0,0,5.061-5.334,5.34,5.34,0,0,0,.364-1.879,4.68,4.68,0,0,0-1.849-3.637,20.775,20.775,0,0,0-4.076-2.106,31,31,0,0,1-4.137-2.015,4.492,4.492,0,0,1-2.334-3.728,4.964,4.964,0,0,1,2.091-3.667q3-2.546,8.486-2.546a9.8,9.8,0,0,1,4.2.773,3.374,3.374,0,0,1,1.985,2.319,3.1,3.1,0,0,1,.061.606,2.758,2.758,0,0,1-1.091,2.122,5.759,5.759,0,0,1-2.031.97q-.546.152-.606-.121-.061-.394.758-.485a1.9,1.9,0,0,0,1.788-1.455A2.417,2.417,0,0,0,416.485,393.69Z" transform="translate(-353.404 -389.599)"/>
        <path id="Path_7" data-name="Path 7" d="M622.359,461.166q0-2.515,2.425-8.425h-1.576a.194.194,0,0,1-.2-.167.478.478,0,0,1,.03-.333.243.243,0,0,1,.227-.167h1.818q1.091-2.394,2.031-4a7.075,7.075,0,0,1,1.727-2.167,2.483,2.483,0,0,1,1.136-.561,1.482,1.482,0,0,1,.5.061,1.373,1.373,0,0,1,.7,1.379,6.19,6.19,0,0,1-.7,2.53q-.7,1.486-1.364,2.758h1.455a.194.194,0,0,1,.2.167.48.48,0,0,1-.03.333.243.243,0,0,1-.227.167h-1.758a22.015,22.015,0,0,1-4.031,5l-.7,3.091a3.427,3.427,0,0,0-.091.773,1.62,1.62,0,0,0,.212.773.706.706,0,0,0,.667.394,2.371,2.371,0,0,0,1.152-.364,13.512,13.512,0,0,0,3.213-4.576.571.571,0,0,1,.288-.333c.111-.04.177-.015.2.076a.861.861,0,0,1-.091.439,28.234,28.234,0,0,1-1.576,2.97q-1.637,2.637-3.485,2.637a1.956,1.956,0,0,1-1.546-.7A2.58,2.58,0,0,1,622.359,461.166Zm5.7-8.425h-1.425q-.364.849-1.636,4.031A23.16,23.16,0,0,0,628.057,452.741Zm.394-.667q2-3.576,2-4.97,0-.606-.212-.606-.334,0-1.015.97a34.186,34.186,0,0,0-2.288,4.607Z" transform="translate(-559.738 -438.921)"/>
        <path id="Path_8" data-name="Path 8" d="M677.581,511.614q2.212,0,2.212,2.788a6.581,6.581,0,0,1-.667,2.728,10.785,10.785,0,0,1-2.546,3.576,1.461,1.461,0,0,0,1.424.758,2.079,2.079,0,0,0,1.546-.818,8.309,8.309,0,0,0,1.3-1.652q.394-.712.576-1.046t.47-.955q.288-.621.349-.758a.214.214,0,0,1,.212-.137c.2-.02.3.051.3.212a.49.49,0,0,1-.061.212l-.182.424q-.182.425-.273.606t-.318.651q-.227.47-.394.743t-.455.727a7.077,7.077,0,0,1-.515.727q-.227.272-.561.606a3.387,3.387,0,0,1-.637.515,2.793,2.793,0,0,1-1.424.455,2.453,2.453,0,0,1-1.94-.788,4.449,4.449,0,0,1-2.576,1.03q-2.213,0-2.212-2.788a6.575,6.575,0,0,1,.667-2.728,10.168,10.168,0,0,1,2.561-3.606A4.841,4.841,0,0,1,677.581,511.614Zm.333.939a3.093,3.093,0,0,0-1.939,1.091,10.025,10.025,0,0,0-2,2.97,8.7,8.7,0,0,0-1.061,3.576q0,1.394,1.061,1.394a2.732,2.732,0,0,0,1.7-.818,2.552,2.552,0,0,1-.485-1.485q.061-1.3,1.061-1.3a.859.859,0,0,1,.652.273.774.774,0,0,1,.258.5,1.94,1.94,0,0,1-.061.47,17.08,17.08,0,0,0,1.182-2.152,6.858,6.858,0,0,0,.758-3.031Q679.036,512.554,677.915,512.553Z" transform="translate(-602.965 -497.552)"/>
        <path id="Path_9" data-name="Path 9" d="M750.956,486.8a3.305,3.305,0,0,1-1.727,2.576q.606.03,1.621.03.872,0,2.137-.112a.444.444,0,0,1,.485.437v.008a3.1,3.1,0,0,1-.364,1.167q-.364.773-.652,1.333l-.545,1.061q-.258.5-.576,1.227t-.53,1.334q-.758,2.3.242,2.3,1.273,0,3.758-5.061.211-.393.349-.3a.267.267,0,0,1,.136.227,4.253,4.253,0,0,1-.394.939q-.394.8-.849,1.652a11.352,11.352,0,0,1-1.424,1.97,3.1,3.1,0,0,1-2.212,1.394q-1.182,0-1.637-1.424a2.763,2.763,0,0,1-.091-.818,4.338,4.338,0,0,1,.349-1.455,15.913,15.913,0,0,1,1.106-2.212q.757-1.3.849-1.531a1.179,1.179,0,0,0,.091-.44q0-.939-2.425-1l-.364.97q-1.91,5-3.667,6.7-.3.273-.3-.182a.492.492,0,0,1,.06-.212,23.208,23.208,0,0,0,2.94-5.3,28.818,28.818,0,0,0,1.727-5.819q.182-.939.849-.94t.97.849A2.015,2.015,0,0,1,750.956,486.8Z" transform="translate(-667.642 -474.285)"/>
        <path id="Path_10" data-name="Path 10" d="M781.708,626.589a3.129,3.129,0,0,0-.373.855,2.16,2.16,0,0,0-.074.6,1.2,1.2,0,0,0,.469.953,1.781,1.781,0,0,0,1.061.3,5.374,5.374,0,0,0,3.608-1.728,25.739,25.739,0,0,0,3.516-3.864l.667-1.121a55.331,55.331,0,0,0-6.3,1.879A5.536,5.536,0,0,0,781.708,626.589Z" transform="translate(-700.326 -595.731)" fill="none"/>
        <path id="Path_11" data-name="Path 11" d="M792.227,521.8q-2.094,1.012-4.264,1.86-.423.164-.848.324c.127-.3.246-.6.353-.909q.35-1.006.844-2.459.8-2.364,1.334-3.788a12.841,12.841,0,0,1,.71-1.7,3.959,3.959,0,0,1,.8-1.023.205.205,0,0,0-.139-.356h-1.051a1.218,1.218,0,0,0-1.182.636,32.728,32.728,0,0,1-4.483,7.352q-1.031,1.212-1.606,1.212a.765.765,0,0,1-.621-.273,1.487,1.487,0,0,1-.228-.939,5.741,5.741,0,0,1,.667-2.091q1.446-3.079,2.466-4.9a4.426,4.426,0,0,1,.848-1.08l.1-.088a.22.22,0,0,0-.148-.382h-1.261a1.18,1.18,0,0,0-1.182.636q-.667,1.364-1.7,3.334l-.545,1.06q-.212.485.273.485a12.149,12.149,0,0,0-.576,1.091q-.061.182-.242.591a2.159,2.159,0,0,0-.2.591q-.015.182-.076.606a1.015,1.015,0,0,0,.061.637,1.68,1.68,0,0,0,1.909,1.364,3.367,3.367,0,0,0,2.394-1.242,23.761,23.761,0,0,0,2.94-4.334,55.567,55.567,0,0,1-1.884,5.332,3.267,3.267,0,0,1-2.071,1.843l-.014,0q-.774.2-1.91.473a22.2,22.2,0,0,0-4.091,1.349,5.656,5.656,0,0,0-2.849,2.485,4.4,4.4,0,0,0-.455,1.788,1.66,1.66,0,0,0,.727,1.349,3.313,3.313,0,0,0,2.061.561,7.394,7.394,0,0,0,4.789-1.818,22.134,22.134,0,0,0,4.7-6.243c.023-.043.043-.087.066-.13.54-.2,1.078-.4,1.615-.616q2.189-.874,4.308-1.917.585-.29,1.162-.6l-.38-.634Q792.788,521.525,792.227,521.8Zm-8.477,5.121a25.743,25.743,0,0,1-3.516,3.864,5.374,5.374,0,0,1-3.608,1.728,1.78,1.78,0,0,1-1.061-.3,1.2,1.2,0,0,1-.469-.953,2.165,2.165,0,0,1,.074-.6,3.134,3.134,0,0,1,.373-.855,5.536,5.536,0,0,1,2.569-2.128,55.337,55.337,0,0,1,6.3-1.879Z" transform="translate(-694.163 -498.947)" fill="url(#linear-gradient)"/>
      </g>
    </g>
    <g id="Yellow_Charcter" data-name="Yellow Charcter" transform="translate(171.503 188.322)">
      <g id="Group_2" data-name="Group 2" transform="translate(0 0)">
        <path id="Path_12" data-name="Path 12" d="M891.513,456.683a4.218,4.218,0,0,0-.3-2.042,6.041,6.041,0,0,0-3.01-3.348,6.718,6.718,0,0,0-4.916-.266.066.066,0,0,1-.06-.117,13.286,13.286,0,0,1,3.509-1.662c2.537-.8,2.245-2.667.683-3.948-1.828-1.5-4.993-1.905-5.851-1.99a.035.035,0,0,1,0-.068,10.3,10.3,0,0,1,1.655-.22,9.292,9.292,0,0,1,9.637,8A7.915,7.915,0,0,1,891.513,456.683Z" transform="translate(-881.541 -443.01)" fill="#c6cdd6"/>
        <circle id="Ellipse_1" data-name="Ellipse 1" cx="1.418" cy="1.418" r="1.418" transform="translate(2.954 2.667)" fill="#c6cdd6"/>
      </g>
    </g>
    <g id="Orange_Character" data-name="Orange Character" transform="translate(172.696 175.443)">
      <g id="Group_3" data-name="Group 3" transform="translate(0 0)">
        <circle id="Ellipse_2" data-name="Ellipse 2" cx="2.365" cy="2.365" r="2.365" transform="translate(2.851 5.934)" fill="#978dad"/>
        <path id="Path_13" data-name="Path 13" d="M901.746,357.2s0,.008.005,0A15.107,15.107,0,0,0,892,331.269a.109.109,0,0,0-.042.211c1.938.686,7.311,3.093,9.023,7.961a2.669,2.669,0,0,1-1.6,3.414,7.3,7.3,0,0,1-2.186.381c-1.815.062-2.922.131-3.557.181a.079.079,0,0,0-.006.156,13.865,13.865,0,0,1,3.114.843A9.346,9.346,0,0,1,902.4,351.5,8.737,8.737,0,0,1,901.746,357.2Z" transform="translate(-891.888 -331.269)" fill="#978dad"/>
      </g>
    </g>
    <g id="Blue_Charcter" data-name="Blue Charcter" transform="translate(175.707 155.145)">
      <g id="Group_4" data-name="Group 4" transform="translate(0 0)">
        <circle id="Ellipse_3" data-name="Ellipse 3" cx="3.768" cy="3.768" r="3.768" transform="translate(6.378 12.131)" fill="#7d7098"/>
        <path id="Path_14" data-name="Path 14" d="M939.709,172.693c-2.628-11.647-12.1-16.2-15.691-17.538a.146.146,0,0,0-.131.259c2.015,1.314,6.042,4.656,9.09,11.747,4.231,9.844-1.937,11.281-5.866,10.026a52.241,52.241,0,0,0-9.013-2.09.072.072,0,0,0-.026.141,15.717,15.717,0,0,1,10.839,9.081,15.526,15.526,0,0,1-2.129,15.629,8.994,8.994,0,0,1-1.944,1.892q-.68.485-1.387.934-1.445.892-2.953,1.683l.38.634q1.506-.8,2.955-1.715c2.429-1.57,12.016-6.98,15.21-17.012A26.142,26.142,0,0,0,939.709,172.693Z" transform="translate(-918.018 -155.145)" fill="#7d7098"/>
      </g>
    </g>
  </g>
</svg>
